<svg version="1.1" id="Layer_1" xmlns="http://www.w3.org/2000/svg" x="0" y="0" viewBox="0 0 175 175" style="enable-background:new 0 0 175 175" xml:space="preserve"><style>.st1{fill:#191717}</style><g id="XMLID_2_"><path id="XMLID_24_" d="M87.6.3c-47.5 0-86 39.9-86 89.2 0 39.4 24.6 72.8 58.8 84.6 4.3.8 5.9-1.9 5.9-4.3 0-2.1-.1-9.2-.1-16.6-23.9 5.4-29-10.5-29-10.5-3.9-10.3-9.5-13-9.5-13-7.8-5.5.6-5.4.6-5.4 8.6.6 13.2 9.2 13.2 9.2 7.7 13.6 20.1 9.7 25 7.4.8-5.8 3-9.7 5.5-11.9-19.1-2.3-39.2-9.9-39.2-44.1 0-9.7 3.4-17.7 8.9-23.9-.9-2.2-3.8-11.3.8-23.6 0 0 7.2-2.4 23.6 9.1 6.9-2 14.2-3 21.5-3 7.3 0 14.7 1 21.5 3 16.4-11.5 23.6-9.1 23.6-9.1 4.7 12.3 1.7 21.4.8 23.6 5.5 6.2 8.8 14.2 8.8 23.9 0 34.3-20.1 41.8-39.3 44 3.1 2.8 5.8 8.2 5.8 16.5 0 11.9-.1 21.5-.1 24.5 0 2.4 1.5 5.2 5.9 4.3 34.1-11.8 58.7-45.2 58.7-84.6C173.6 40.3 135.1.3 87.6.3z" style="fill-rule:evenodd;clip-rule:evenodd;fill:#191717"/><path id="XMLID_21_" class="st1" d="M34.2 128.4c-.2.4-.9.6-1.5.3s-1-.9-.8-1.3c.2-.5.9-.6 1.5-.3.7.2 1 .9.8 1.3zm-1.1-.8"/><path id="XMLID_18_" class="st1" d="M37.7 132.4c-.4.4-1.2.2-1.8-.4-.6-.6-.7-1.5-.3-1.9.4-.4 1.2-.2 1.8.4.6.7.7 1.5.3 1.9zm-.8-.9"/><path id="XMLID_15_" class="st1" d="M41.1 137.6c-.5.4-1.4 0-1.9-.8s-.5-1.7 0-2.1c.5-.4 1.4 0 1.9.7.5.8.5 1.8 0 2.2zm0 0"/><path id="XMLID_12_" class="st1" d="M45.7 142.5c-.5.5-1.5.4-2.2-.3-.8-.7-1-1.7-.5-2.3.5-.5 1.5-.4 2.2.3.8.8 1 1.8.5 2.3zm0 0"/><path id="XMLID_9_" class="st1" d="M52.1 145.4c-.2.7-1.2 1-2.1.7-1-.3-1.6-1.1-1.4-1.8.2-.7 1.2-1 2.2-.7.9.3 1.5 1.1 1.3 1.8zm0 0"/><path id="XMLID_6_" class="st1" d="M59.2 145.9c0 .7-.8 1.3-1.8 1.4-1 0-1.9-.6-1.9-1.3 0-.7.8-1.3 1.8-1.4 1 0 1.9.6 1.9 1.3zm0 0"/><path id="XMLID_3_" class="st1" d="M65.7 144.8c.1.7-.6 1.5-1.6 1.7-1 .2-1.9-.3-2-1-.1-.7.6-1.5 1.6-1.7 1-.2 1.9.3 2 1zm0 0"/></g></svg>