<svg version="1.1" id="Layer_1" xmlns="http://www.w3.org/2000/svg" x="0" y="0" viewBox="0 0 175 175" style="enable-background:new 0 0 175 175" xml:space="preserve"><style>.st1{fill:#fff}</style><path id="XMLID_1_" d="M173 157.2c0 9.6-7.8 17.4-17.3 17.4H18.4c-9.6 0-17.3-7.8-17.3-17.4V18C1 8.4 8.8.6 18.4.6h137.3C165.3.6 173 8.4 173 18v139.2z" style="fill:#58595b"/><g id="XMLID_2_"><path id="XMLID_3_" class="st1" d="M57 43.1c0 6.4-4.7 11.6-12.5 11.6-7.3 0-12-5.2-12-11.6 0-6.5 4.9-11.6 12.3-11.6 7.5.1 12 5.1 12.2 11.6zm-23.9 95.1V63.8h23.1v74.4H33.1z"/><path id="XMLID_6_" class="st1" d="M70.1 87.6c0-9.3-.3-17-.6-23.7h20.1l1.1 10.3h.5c3-4.9 10.5-12 23-12 15.2 0 26.6 10.2 26.6 32.1v44h-23.1V97c0-9.6-3.3-16.1-11.7-16.1-6.4 0-10.2 4.4-11.9 8.7-.6 1.5-.8 3.7-.8 5.8v42.9H70.1V87.6z"/></g></svg>