<?xml version="1.0" encoding="utf-8"?>
<!-- Generator: Adobe Illustrator 19.0.0, SVG Export Plug-In . SVG Version: 6.00 Build 0)  -->
<svg version="1.1" id="Layer_1" xmlns="http://www.w3.org/2000/svg" xmlns:xlink="http://www.w3.org/1999/xlink" x="0px" y="0px"
	 viewBox="0 0 175 175" style="enable-background:new 0 0 175 175;" xml:space="preserve">
<style type="text/css">
	.st0{fill:#58595B;}
	.st1{fill:#FFFFFF;}
</style>
<path id="XMLID_1_" class="st0" d="M173,157.2c0,9.6-7.8,17.4-17.3,17.4H18.4c-9.6,0-17.3-7.8-17.3-17.4V18C1,8.4,8.8,0.6,18.4,0.6
	h137.3c9.6,0,17.3,7.8,17.3,17.4V157.2z"/>
<g id="XMLID_2_">
	<path id="XMLID_3_" class="st1" d="M57,43.1c0,6.4-4.7,11.6-12.5,11.6c-7.3,0-12-5.2-12-11.6c0-6.5,4.9-11.6,12.3-11.6
		C52.3,31.6,56.8,36.6,57,43.1z M33.1,138.2V63.8h23.1v74.4H33.1z"/>
	<path id="XMLID_6_" class="st1" d="M70.1,87.6c0-9.3-0.3-17-0.6-23.7h20.1l1.1,10.3h0.5c3-4.9,10.5-12,23-12
		c15.2,0,26.6,10.2,26.6,32.1v44h-23.1V97c0-9.6-3.3-16.1-11.7-16.1c-6.4,0-10.2,4.4-11.9,8.7c-0.6,1.5-0.8,3.7-0.8,5.8v42.9H70.1
		V87.6z"/>
</g>
</svg>
